<?xml version="1.0" encoding="utf-8"?>
<!-- Generator: Adobe Illustrator 21.1.0, SVG Export Plug-In . SVG Version: 6.00 Build 0)  -->
<svg version="1.1" id="Layer_1" xmlns="http://www.w3.org/2000/svg" xmlns:xlink="http://www.w3.org/1999/xlink" x="0px" y="0px"
	 viewBox="0 0 450 180" style="enable-background:new 0 0 450 180;" xml:space="preserve">
<style type="text/css">
	.st0{fill:#19315B;}
	.st1{fill:#189FDA;}
</style>
<g>
	<polygon class="st0" points="14.8,93.9 45,93.9 45,101.1 22.8,101.1 22.8,117 45,117 45,124.1 22.8,124.1 22.8,150.5 14.8,150.5 	
		"/>
	<rect x="54.9" y="93.9" class="st0" width="7.4" height="56.6"/>
	<path class="st0" d="M78.8,97.6c1.2,0,2.3,0.4,3.1,1.3c0.9,0.8,1.3,1.9,1.3,3.1c0,1.2-0.4,2.2-1.3,3.1c-0.9,0.9-1.9,1.3-3.1,1.3
		c-1.1,0-2.1-0.4-3-1.3c-0.9-0.9-1.3-1.9-1.3-3.1c0-1.1,0.4-2.1,1.3-3C76.7,98,77.7,97.6,78.8,97.6 M75.2,113.2h7.4v37.3h-7.4V113.2
		z"/>
	<path class="st0" d="M93.3,126.1c0-4,1.5-7.1,4.4-9.4c2.9-2.3,6.9-3.5,11.9-3.5H125v5.7h-7.5c1.5,1.5,2.5,2.8,3,4.1
		c0.6,1.2,0.9,2.6,0.9,4.2c0,2-0.6,3.9-1.7,5.8c-1.1,1.9-2.5,3.3-4.3,4.3c-1.8,1-4.6,1.8-8.6,2.4c-2.8,0.4-4.2,1.4-4.2,2.9
		c0,0.9,0.5,1.6,1.6,2.1c1,0.6,2.9,1.1,5.7,1.7c4.6,1,7.5,1.8,8.8,2.4c1.3,0.6,2.5,1.4,3.5,2.4c1.8,1.8,2.7,4,2.7,6.7
		c0,3.5-1.6,6.4-4.7,8.5c-3.1,2.1-7.4,3.2-12.6,3.2c-5.3,0-9.6-1.1-12.7-3.2c-3.2-2.1-4.8-5-4.8-8.5c0-5.1,3.1-8.3,9.3-9.8
		c-2.5-1.6-3.7-3.2-3.7-4.7c0-1.2,0.5-2.3,1.6-3.2c1.1-1,2.5-1.7,4.3-2.1C96.1,135.5,93.3,131.6,93.3,126.1 M105.5,152.3
		c-2.5,0-4.5,0.5-6.1,1.6c-1.6,1.1-2.4,2.4-2.4,4.1c0,3.9,3.5,5.8,10.4,5.8c3.3,0,5.8-0.5,7.6-1.4c1.8-1,2.7-2.3,2.7-4.1
		c0-1.7-1.1-3.2-3.4-4.2C112,152.9,109.1,152.3,105.5,152.3 M107.2,119.6c-2,0-3.7,0.7-5.1,2c-1.4,1.4-2.1,3-2.1,4.9
		c0,1.9,0.7,3.5,2.1,4.8c1.4,1.3,3.1,1.9,5.3,1.9c2.1,0,3.8-0.6,5.2-1.9c1.4-1.3,2.1-2.9,2.1-4.8c0-2-0.7-3.6-2.1-4.9
		C111.1,120.3,109.3,119.6,107.2,119.6"/>
	<path class="st0" d="M132.6,93.9h7.4v24.1c3.1-3.7,6.9-5.6,11.4-5.6c2.5,0,4.7,0.6,6.7,1.9c2,1.2,3.4,3,4.4,5.2
		c1,2.2,1.4,5.5,1.4,9.8v21.3h-7.4v-23.1c0-2.7-0.7-4.9-2-6.6c-1.3-1.7-3.1-2.5-5.3-2.5c-1.6,0-3.1,0.4-4.6,1.3
		c-1.4,0.8-3,2.2-4.7,4.2v26.8h-7.4V93.9z"/>
	<path class="st0" d="M171.1,119.1l13.9-13.6v7.7h11.7v6.6H185v18.4c0,4.3,1.8,6.4,5.3,6.4c2.6,0,5.4-0.9,8.3-2.6v6.9
		c-2.8,1.6-5.9,2.4-9.2,2.4c-3.4,0-6.2-1-8.4-3c-0.7-0.6-1.3-1.3-1.7-2c-0.5-0.8-0.8-1.7-1.1-2.9c-0.3-1.2-0.5-3.5-0.5-6.9v-16.6
		h-6.5V119.1z"/>
</g>
<g>
	<g>
		<path class="st1" d="M210.8,150.5c-0.5,0-1-0.1-1.5-0.4c-1.2-0.8-1.6-2.4-0.7-3.7c0.1-0.2,3-4.6,8.8-11.5c0.9-1.1,2.6-1.3,3.7-0.3
			c1.1,0.9,1.3,2.6,0.3,3.7c-5.6,6.6-8.4,10.9-8.5,11C212.5,150.1,211.6,150.5,210.8,150.5z M228.9,128.8c-0.7,0-1.3-0.2-1.8-0.7
			c-1.1-1-1.1-2.7-0.1-3.7c3.3-3.4,6.7-6.8,10.2-10c1.1-1,2.7-0.9,3.7,0.1c1,1.1,0.9,2.8-0.1,3.7c-3.4,3.2-6.8,6.5-10,9.8
			C230.3,128.6,229.6,128.8,228.9,128.8z M249.6,109.7c-0.8,0-1.5-0.3-2-1c-0.9-1.1-0.8-2.8,0.4-3.7c3.7-3,7.5-6,11.3-8.7
			c1.2-0.9,2.8-0.6,3.7,0.6c0.9,1.2,0.6,2.8-0.6,3.7c-3.7,2.7-7.5,5.6-11,8.6C250.8,109.5,250.2,109.7,249.6,109.7z M272.5,93
			c-0.9,0-1.7-0.4-2.2-1.2c-0.8-1.2-0.4-2.9,0.8-3.7c4-2.6,8.1-5.1,12.2-7.4c1.3-0.7,2.9-0.3,3.6,1c0.7,1.3,0.3,2.9-1,3.6
			c-4,2.3-8.1,4.7-12,7.2C273.4,92.9,273,93,272.5,93z M297.1,79.2c-1,0-1.9-0.5-2.4-1.5c-0.6-1.3-0.1-2.9,1.2-3.5
			c4.3-2.1,8.6-4.1,13-5.9c1.3-0.6,2.9,0.1,3.5,1.4c0.6,1.4-0.1,2.9-1.4,3.5c-4.3,1.8-8.6,3.7-12.7,5.7
			C297.8,79.1,297.4,79.2,297.1,79.2z M323.1,68.3c-1.1,0-2.1-0.7-2.5-1.8c-0.5-1.4,0.3-2.9,1.6-3.4c4.5-1.5,9.1-3,13.6-4.2
			c1.4-0.4,2.9,0.4,3.3,1.8c0.4,1.4-0.4,2.9-1.8,3.3c-4.5,1.2-9,2.6-13.3,4.1C323.7,68.3,323.4,68.3,323.1,68.3z"/>
	</g>
	<path class="st1" d="M438.9,39.3c0.1,0.3-0.5,1.1-1,1.7c-0.8,0.8-3.1,3.5-12.3,5.5c-9.2,2-20.8,4.1-21.6,4.3
		c-0.8,0.1-2.4-0.2-3.3,2.5c-0.8,2.7-11,39.2-11,39.2l-3.1,0.7l-3.5-38.2c0,0-21.7,4.3-23.9,4.3l-5.5,14.6l-2.8,0.3l0.6-14.8
		c0,0-3-0.5-3.5-0.6c-0.2,0-0.4,0-0.5-0.3l0,0c0-0.2,0.1-0.3,0.3-0.4c0.4-0.3,3-1.9,3-1.9l-6.5-13.3L347,42l10.9,11.2
		c2-0.9,23.6-5.7,23.6-5.7L369.4,11l3.1-0.6c0,0,24,29.4,25.9,31.5c1.9,2.1,3.2,1.2,4,1c0.8-0.2,12.3-2.9,21.5-4.8
		c9.2-1.9,12.4-0.3,13.5,0.1C438,38.4,438.9,39,438.9,39.3L438.9,39.3z"/>
</g>
<g>
	<polygon class="st0" points="305.9,113.2 313.8,113.2 297.4,151.3 294.9,151.3 283.9,125.2 273.1,151.3 270.6,151.3 254.1,113.2 
		262,113.2 271.8,135.9 281.2,113.2 286.7,113.2 296.2,135.9 	"/>
	<path class="st0" d="M344.4,128.1V144c0,1.3,0.4,1.9,1.3,1.9c0.9,0,2.3-0.7,4.2-2v4.4c-1.7,1.1-3,1.8-4,2.2c-1,0.4-2.1,0.6-3.2,0.6
		c-3.2,0-5-1.2-5.6-3.7c-3.1,2.4-6.5,3.7-10,3.7c-2.6,0-4.8-0.9-6.5-2.6c-1.7-1.7-2.6-3.9-2.6-6.5c0-2.4,0.8-4.4,2.5-6.3
		c1.7-1.8,4.1-3.3,7.2-4.4l9.4-3.2v-2c0-4.5-2.2-6.8-6.7-6.8c-4,0-7.9,2.1-11.7,6.2v-8c2.9-3.3,7-5,12.3-5c4,0,7.2,1.1,9.7,3.2
		c0.8,0.7,1.5,1.6,2.2,2.7c0.6,1.1,1.1,2.2,1.2,3.4C344.3,122.8,344.4,125,344.4,128.1 M337.2,143.1v-11l-4.9,1.9
		c-2.5,1-4.3,2-5.3,3c-1,1-1.6,2.3-1.6,3.8c0,1.5,0.5,2.8,1.5,3.8c1,1,2.3,1.5,3.8,1.5C333,146,335.2,145,337.2,143.1"/>
	<path class="st0" d="M364.4,113.2v8.5l0.4-0.6c3.6-5.8,7.2-8.6,10.7-8.6c2.8,0,5.7,1.4,8.7,4.2l-3.9,6.5c-2.6-2.4-5-3.6-7.1-3.6
		c-2.4,0-4.4,1.1-6.2,3.4c-1.8,2.3-2.6,5-2.6,8.1v19.5H357v-37.3H364.4z"/>
	<path class="st0" d="M421.5,132.5h-26.1c0.2,3.6,1.4,6.4,3.6,8.5c2.2,2.1,5,3.2,8.5,3.2c4.8,0,9.3-1.5,13.4-4.5v7.2
		c-2.3,1.5-4.5,2.6-6.7,3.2c-2.2,0.6-4.8,1-7.8,1c-4.1,0-7.4-0.8-9.9-2.6c-2.5-1.7-4.6-4-6.1-6.9c-1.5-2.9-2.3-6.2-2.3-10
		c0-5.7,1.6-10.3,4.8-13.8c3.2-3.6,7.4-5.3,12.5-5.3c4.9,0,8.9,1.7,11.8,5.2c2.9,3.5,4.4,8.1,4.4,13.9V132.5z M395.5,128.1h18.8
		c-0.2-3-1.1-5.3-2.6-6.9c-1.6-1.6-3.7-2.4-6.3-2.4s-4.8,0.8-6.5,2.4C397.1,122.9,396,125.2,395.5,128.1"/>
	<polygon class="st0" points="230,106 211.2,150.5 202.9,150.5 227.1,93.6 232.8,93.6 258.3,150.5 250,150.5 	"/>
</g>
</svg>
