<?xml version="1.0" encoding="iso-8859-1"?>
<!-- Generator: Adobe Illustrator 28.2.0, SVG Export Plug-In . SVG Version: 6.00 Build 0)  -->
<svg version="1.1" id="Layer_1" xmlns="http://www.w3.org/2000/svg" xmlns:xlink="http://www.w3.org/1999/xlink" x="0px" y="0px"
	 viewBox="0 0 64 64" style="enable-background:new 0 0 64 64;" xml:space="preserve">
<path d="M62,17.02H48.66c-0.814,0-1.512,0.488-1.824,1.187h0.324v2.952h-1v-2.952h0.324c-0.312-0.698-1.01-1.187-1.824-1.187H2
	c-1.105,0-2,0.895-2,2v24.945c0,1.105,0.895,2,2,2h42.66c0.814,0,1.512-0.488,1.824-1.187H46.16v-2.952h1v2.952h-0.324
	c0.312,0.698,1.01,1.187,1.824,1.187H62c1.105,0,2-0.895,2-2V19.02C64,17.916,63.105,17.02,62,17.02z M23.151,32.112
	c-1.063,1.236-2.657,1.885-4.282,1.743l-2.407-0.211l-5.068,8.908H9.121l2.827-9.304l-4.78-0.419l-2.458,4.32H3.492l1.719-5.655
	l-1.719-5.656h1.219l2.458,4.32l4.78-0.419l-2.827-9.304h2.274l5.068,8.908l2.407-0.211c1.625-0.142,3.218,0.506,4.282,1.743
	C23.457,31.23,23.457,31.756,23.151,32.112z M29.557,27.065h-1.825v-7.555h1.825V27.065z M30.581,27.065h-0.526v-7.555h0.526V27.065
	z M31.742,27.065h-0.526v-7.555h0.526V27.065z M35.253,27.065h-2.876v-7.555h2.876V27.065z M36.401,27.065h-0.526v-7.555h0.526
	V27.065z M39.794,27.065h-1.825v-7.555h1.825V27.065z M40.914,27.065h-0.526v-7.555h0.526V27.065z M41.937,27.065h-0.526v-7.555
	h0.526V27.065z M42.96,27.065h-0.526v-7.555h0.526V27.065z M47.16,38.875h-1v-2.953h1V38.875z M47.16,32.969h-1v-2.952h1V32.969z
	 M47.16,27.064h-1v-2.952h1V27.064z M57.399,37.897h-7.377v-1.175h7.377V37.897z M61.137,34.357H50.022v-1.175h11.115V34.357z
	 M61.137,30.818H50.022v-1.175h11.115V30.818z M61.137,27.278H50.022v-1.175h11.115V27.278z"/>
</svg>
