<?xml version="1.0" encoding="iso-8859-1"?>
<!-- Generator: Adobe Illustrator 28.2.0, SVG Export Plug-In . SVG Version: 6.00 Build 0)  -->
<svg version="1.1" id="Layer_1" xmlns="http://www.w3.org/2000/svg" xmlns:xlink="http://www.w3.org/1999/xlink" x="0px" y="0px"
	 viewBox="0 0 64 64" style="enable-background:new 0 0 64 64;" xml:space="preserve">
<g>
	<path d="M62,17.02H48.66c-0.814,0-1.512,0.488-1.824,1.187h0.324v2.952h-1v-2.952h0.324c-0.312-0.698-1.01-1.187-1.824-1.187H2
		c-1.105,0-2,0.895-2,2v24.945c0,1.105,0.895,2,2,2h42.66c0.814,0,1.512-0.488,1.824-1.187H46.16v-2.952h1v2.952h-0.324
		c0.312,0.698,1.01,1.187,1.824,1.187H62c1.105,0,2-0.895,2-2V19.02C64,17.916,63.105,17.02,62,17.02z M47.16,38.875h-1v-2.953h1
		V38.875z M47.16,32.969h-1v-2.952h1V32.969z M47.16,27.064h-1v-2.952h1V27.064z"/>
</g>
<path style="fill:#FFFFFF;" d="M57.231,24.795l0.461-0.461l-0.779-2.836l0.531-0.446c0.359-0.301,0.55-0.756,0.515-1.223
	c-0.01-0.134-0.117-0.241-0.251-0.251c-0.467-0.035-0.922,0.157-1.223,0.515l-0.446,0.531l-2.836-0.779l-0.461,0.461l2.462,1.314
	l-0.885,1.055l-1.375-0.378l-0.247,0.247l1.496,0.799l0.799,1.496l0.247-0.247l-0.378-1.375l1.055-0.885L57.231,24.795z"/>
<g>
	
		<rect x="38.4" y="15.155" transform="matrix(-2.203237e-07 1 -1 -2.203237e-07 58.9859 -19.7759)" style="fill:#FFFFFF;" width="1.962" height="8.9"/>
	
		<rect x="39.098" y="16.954" transform="matrix(-2.203239e-07 1 -1 -2.203239e-07 60.7847 -17.977)" style="fill:#FFFFFF;" width="0.566" height="8.9"/>
	
		<rect x="39.098" y="18.202" transform="matrix(-2.203239e-07 1 -1 -2.203239e-07 62.0332 -16.7286)" style="fill:#FFFFFF;" width="0.566" height="8.9"/>
	
		<rect x="39.098" y="23.211" transform="matrix(-2.203255e-07 1 -1 -2.203255e-07 67.0419 -11.7198)" style="fill:#FFFFFF;" width="0.566" height="8.9"/>
	
		<rect x="39.098" y="28.063" transform="matrix(-2.203255e-07 1 -1 -2.203255e-07 71.8941 -6.8676)" style="fill:#FFFFFF;" width="0.566" height="8.9"/>
	
		<rect x="39.098" y="29.163" transform="matrix(-2.203239e-07 1 -1 -2.203239e-07 72.994 -5.7678)" style="fill:#FFFFFF;" width="0.566" height="8.9"/>
	
		<rect x="39.098" y="30.263" transform="matrix(-2.203239e-07 1 -1 -2.203239e-07 74.0938 -4.6679)" style="fill:#FFFFFF;" width="0.566" height="8.9"/>
	
		<rect x="38.044" y="20.504" transform="matrix(-2.549072e-07 1 -1 -2.549072e-07 64.3352 -14.4264)" style="fill:#FFFFFF;" width="2.673" height="8.9"/>
	
		<rect x="38.681" y="32.525" transform="matrix(-3.090057e-07 1 -1 -3.090057e-07 76.3563 -2.4052)" style="fill:#FFFFFF;" width="1.399" height="8.9"/>
	
		<rect x="39.098" y="34.606" transform="matrix(-2.203239e-07 1 -1 -2.203239e-07 78.4366 -0.3252)" style="fill:#FFFFFF;" width="0.566" height="8.9"/>
	
		<rect x="39.098" y="35.854" transform="matrix(-2.203239e-07 1 -1 -2.203239e-07 79.6851 0.9233)" style="fill:#FFFFFF;" width="0.566" height="8.9"/>
	
		<rect x="37.835" y="38.366" transform="matrix(-2.203242e-07 1 -1 -2.203242e-07 82.1968 3.4351)" style="fill:#FFFFFF;" width="3.092" height="8.9"/>
	
		<rect x="38.4" y="26.16" transform="matrix(-2.203242e-07 1 -1 -2.203242e-07 69.9913 -8.7705)" style="fill:#FFFFFF;" width="1.962" height="8.9"/>
</g>
<g>
	<rect x="5.265" y="24.324" style="fill:#FFFFFF;" width="22.643" height="1.529"/>
	<rect x="5.265" y="28.932" style="fill:#FFFFFF;" width="22.643" height="1.529"/>
	<rect x="5.265" y="33.539" style="fill:#FFFFFF;" width="22.643" height="1.529"/>
	<rect x="5.265" y="38.147" style="fill:#FFFFFF;" width="15.028" height="1.529"/>
</g>
<g>
	<rect x="49.669" y="28.932" style="fill:#FFFFFF;" width="11.321" height="1.529"/>
	<rect x="49.669" y="33.539" style="fill:#FFFFFF;" width="5.661" height="1.529"/>
</g>
</svg>
