<?xml version="1.0" encoding="iso-8859-1"?>
<!-- Generator: Adobe Illustrator 28.2.0, SVG Export Plug-In . SVG Version: 6.00 Build 0)  -->
<svg version="1.1" id="Layer_1" xmlns="http://www.w3.org/2000/svg" xmlns:xlink="http://www.w3.org/1999/xlink" x="0px" y="0px"
	 viewBox="0 0 64 64" style="enable-background:new 0 0 64 64;" xml:space="preserve">
<path d="M63.705,33.36L63.705,33.36c-1.076-1.574-2.593-2.752-4.325-3.414c-1.039-0.397-2.155-0.609-3.299-0.609H11.359
	l-7.026-9.828H0l4.546,13.894l0,0c1.149,3.512,4.425,5.887,8.12,5.887h43.416c3.05,0,5.903-1.506,7.624-4.023
	C64.098,34.692,64.098,33.935,63.705,33.36z"/>
<circle cx="51.405" cy="42.474" r="2.017"/>
<circle cx="18.718" cy="42.474" r="2.017"/>
<path style="fill:#FFFFFF;" d="M58.962,31.041c-0.924-0.353-1.893-0.532-2.88-0.532H55.05v0.096c0,1.294,1.049,2.344,2.344,2.344
	h4.451C61.035,32.116,60.062,31.462,58.962,31.041z"/>
<path style="fill:#FFFFFF;" d="M50.991,32.948L50.991,32.948c-0.456,0-0.826-0.37-0.826-0.826v-0.787
	c0-0.456,0.37-0.826,0.826-0.826l0,0c0.456,0,0.826,0.37,0.826,0.826v0.787C51.818,32.578,51.448,32.948,50.991,32.948z"/>
<path style="fill:#FFFFFF;" d="M48.1,32.948L48.1,32.948c-0.456,0-0.826-0.37-0.826-0.826v-0.787c0-0.456,0.37-0.826,0.826-0.826
	l0,0c0.456,0,0.826,0.37,0.826,0.826v0.787C48.926,32.578,48.556,32.948,48.1,32.948z"/>
<path style="fill:#FFFFFF;" d="M45.208,32.948L45.208,32.948c-0.456,0-0.826-0.37-0.826-0.826v-0.787
	c0-0.456,0.37-0.826,0.826-0.826h0c0.456,0,0.826,0.37,0.826,0.826v0.787C46.034,32.578,45.664,32.948,45.208,32.948z"/>
<path style="fill:#FFFFFF;" d="M42.316,32.948L42.316,32.948c-0.456,0-0.826-0.37-0.826-0.826v-0.787
	c0-0.456,0.37-0.826,0.826-0.826h0c0.456,0,0.826,0.37,0.826,0.826v0.787C43.142,32.578,42.772,32.948,42.316,32.948z"/>
<path style="fill:#FFFFFF;" d="M39.424,32.948L39.424,32.948c-0.456,0-0.826-0.37-0.826-0.826v-0.787
	c0-0.456,0.37-0.826,0.826-0.826h0c0.456,0,0.826,0.37,0.826,0.826v0.787C40.25,32.578,39.88,32.948,39.424,32.948z"/>
<path style="fill:#FFFFFF;" d="M43.746,33.814H22.575l-2.349-2.268h-1.508l1.755,3.219c0.019,0.052,0.047,0.096,0.077,0.141
	l0.008,0.014l0.002,0c0.129,0.188,0.334,0.32,0.578,0.32h22.608c0.392,0,0.713-0.321,0.713-0.713
	C44.459,34.135,44.138,33.814,43.746,33.814z"/>
<g>
	<path d="M32.967,20.69c-0.05-0.148-0.098-0.31-0.146-0.483c-0.048,0.174-0.095,0.336-0.141,0.486s-0.091,0.281-0.136,0.394
		l-0.9,2.45h2.358l-0.9-2.46C33.061,20.967,33.016,20.839,32.967,20.69z"/>
	<path d="M48.527,18.349c-0.853-1.616-2.53-2.628-4.357-2.628H25.492c-1.827,0-3.505,1.011-4.357,2.628l-5.458,10.346h38.31
		L48.527,18.349z M27.583,26.33h-1.376v-6.266h-2.235v-1.13h5.836v1.13h-2.225V26.33z M35.368,26.33c-0.12,0-0.217-0.03-0.294-0.089
		c-0.077-0.06-0.132-0.134-0.167-0.223l-0.552-1.509h-3.064l-0.552,1.509c-0.027,0.079-0.081,0.15-0.161,0.215
		c-0.081,0.065-0.178,0.097-0.294,0.097h-1.069l2.905-7.396h1.407l2.905,7.396H35.368z M41.956,26.33
		c-0.092,0-0.166-0.024-0.223-0.072c-0.056-0.047-0.103-0.102-0.141-0.164l-1.713-2.833c-0.014,0.041-0.029,0.079-0.046,0.115
		c-0.017,0.036-0.034,0.069-0.051,0.1l-1.642,2.619c-0.038,0.058-0.083,0.112-0.138,0.161c-0.055,0.049-0.123,0.074-0.205,0.074
		h-1.289l2.46-3.806l-2.358-3.591h1.371c0.095,0,0.165,0.013,0.207,0.039s0.081,0.067,0.115,0.125l1.683,2.716
		c0.017-0.044,0.036-0.088,0.056-0.13s0.044-0.086,0.072-0.13l1.54-2.43c0.075-0.126,0.172-0.189,0.292-0.189h1.32l-2.384,3.535
		l2.45,3.862H41.956z M45.69,26.33h-1.381v-7.396h1.381V26.33z"/>
</g>
</svg>
