<?xml version="1.0" encoding="iso-8859-1"?>
<!-- Generator: Adobe Illustrator 28.2.0, SVG Export Plug-In . SVG Version: 6.00 Build 0)  -->
<svg version="1.1" id="Layer_1" xmlns="http://www.w3.org/2000/svg" xmlns:xlink="http://www.w3.org/1999/xlink" x="0px" y="0px"
	 viewBox="0 0 64 64" style="enable-background:new 0 0 64 64;" xml:space="preserve">
<path d="M14.812,42.677c-3.388-3.388-8.882-3.388-12.271,0c-2.971,2.971-3.386,7.644-0.986,11.092L8.677,64l7.121-10.231
	C18.198,50.321,17.783,45.648,14.812,42.677z M8.677,52.068c-2.165,0-3.921-1.755-3.921-3.921s1.755-3.921,3.921-3.921
	s3.921,1.755,3.921,3.921S10.842,52.068,8.677,52.068z"/>
<path d="M61.459,2.541c-3.388-3.388-8.882-3.388-12.271,0c-2.971,2.971-3.386,7.644-0.986,11.092l7.121,10.231l7.121-10.231
	C64.845,10.185,64.43,5.512,61.459,2.541z M55.323,11.932c-2.165,0-3.921-1.755-3.921-3.921s1.755-3.921,3.921-3.921
	s3.921,1.755,3.921,3.921S57.489,11.932,55.323,11.932z"/>
<path d="M38.404,58.276h-3v-1h3V58.276z M32.404,58.276h-3v-1h3V58.276z M26.404,58.276h-3v-1h3V58.276z M20.404,58.276h-3v-1h3
	V58.276z M41.409,58.276l-0.009-1c0.962-0.008,1.916-0.14,2.835-0.391l0.264,0.965C43.496,58.124,42.456,58.268,41.409,58.276z
	 M47.376,56.646l-0.503-0.865c0.826-0.48,1.59-1.067,2.269-1.745l0.706,0.709C49.108,55.481,48.277,56.121,47.376,56.646z
	 M51.756,52.275l-0.863-0.506c0.484-0.826,0.858-1.713,1.113-2.636l0.964,0.266C52.692,50.406,52.284,51.374,51.756,52.275z
	 M53.404,46.311l-1-0.012l0-0.123c0-0.92-0.112-1.835-0.335-2.719l0.97-0.244c0.243,0.964,0.366,1.961,0.365,2.963L53.404,46.311z
	 M51.017,40.797c-0.464-0.836-1.036-1.611-1.7-2.304l0.722-0.691c0.723,0.754,1.346,1.599,1.852,2.511L51.017,40.797z
	 M47.086,36.697c-0.819-0.501-1.699-0.893-2.614-1.164l0.284-0.959c0.999,0.297,1.958,0.724,2.851,1.27L47.086,36.697z
	 M41.645,35.081c-0.113-0.004-0.227-0.006-0.341-0.006h-2.642v-1h2.642c0.125,0,0.25,0.002,0.375,0.006L41.645,35.081z
	 M15.78,35.075c-0.388,0-0.783-0.023-1.175-0.071l0.119-0.992c0.36,0.043,0.757,0.056,1.078,0.063h1.859v1h-1.858
	C15.796,35.075,15.788,35.075,15.78,35.075z M35.662,35.075h-3v-1h3V35.075z M29.662,35.075h-3v-1h3V35.075z M23.662,35.075h-3v-1h3
	V35.075z M11.582,34.136c-0.955-0.45-1.829-1.047-2.597-1.773l0.687-0.727c0.691,0.653,1.478,1.19,2.337,1.595L11.582,34.136z
	 M7.07,29.869c-0.504-0.93-0.854-1.929-1.039-2.97l0.984-0.175c0.167,0.936,0.48,1.833,0.933,2.668L7.07,29.869z M6.963,23.894
	l-0.99-0.139c0.147-1.047,0.459-2.058,0.928-3.005l0.896,0.443C7.376,22.045,7.096,22.954,6.963,23.894z M9.438,18.89l-0.713-0.702
	c0.744-0.755,1.596-1.383,2.531-1.866l0.459,0.889C10.874,17.645,10.107,18.21,9.438,18.89z M14.402,16.33l-0.156-0.987
	c0.512-0.081,1.036-0.122,1.558-0.122h1.513v1h-1.513C15.334,16.221,14.863,16.258,14.402,16.33z M47.317,16.221h-3v-1h3V16.221z
	 M41.317,16.221h-3v-1h3V16.221z"/>
<path d="M22.644,26.779h2.274l5.068-8.908l2.407,0.211c1.625,0.142,3.218-0.506,4.282-1.743c0.306-0.356,0.306-0.882,0-1.237
	c-1.063-1.236-2.657-1.885-4.282-1.743l-2.407,0.211l-5.068-8.908h-2.274l2.827,9.304l-4.78,0.419l-2.458-4.32h-1.219l1.719,5.656
	l-1.719,5.655h1.219l2.458-4.32l4.78,0.419L22.644,26.779z"/>
</svg>
