<?xml version="1.0" encoding="iso-8859-1"?>
<!-- Generator: Adobe Illustrator 28.2.0, SVG Export Plug-In . SVG Version: 6.00 Build 0)  -->
<svg version="1.1" id="Layer_1" xmlns="http://www.w3.org/2000/svg" xmlns:xlink="http://www.w3.org/1999/xlink" x="0px" y="0px"
	 viewBox="0 0 64 64" style="enable-background:new 0 0 64 64;" xml:space="preserve">
<path d="M64,30.154l-17.037,0.575l-2.286,5.561l8.02-0.689c-0.002,0.057-0.017,0.11-0.017,0.168c0,2.463,1.997,4.46,4.46,4.46
	c2.463,0,4.46-1.997,4.46-4.46c0-0.317-0.036-0.626-0.099-0.924L64,34.629V30.154z M57.141,38.79c-1.669,0-3.022-1.353-3.022-3.022
	s1.353-3.022,3.022-3.022c1.669,0,3.022,1.353,3.022,3.022S58.81,38.79,57.141,38.79z"/>
<g>
	<path d="M38.532,48.138c-0.342,0-0.622,0.28-0.622,0.622v0.955h-1.237v-0.955c0-0.342-0.28-0.622-0.622-0.622
		s-0.622,0.28-0.622,0.622v2.743c0,0.342,0.28,0.622,0.622,0.622s0.622-0.28,0.622-0.622v-0.955h1.237v0.955
		c0,0.342,0.28,0.622,0.622,0.622s0.622-0.28,0.622-0.622v-2.743C39.154,48.417,38.874,48.138,38.532,48.138z"/>
	<path d="M37.374,50.424h-0.164c-0.168,0-0.306-0.138-0.306-0.306v-6.167c0-0.168,0.138-0.306,0.306-0.306h0.164
		c0.168,0,0.306,0.138,0.306,0.306v6.167C37.68,50.286,37.543,50.424,37.374,50.424z"/>
</g>
<g>
	<path d="M51.258,39.684c-0.342,0-0.622,0.28-0.622,0.622v0.955h-1.237v-0.955c0-0.342-0.28-0.622-0.622-0.622
		s-0.622,0.28-0.622,0.622v2.743c0,0.342,0.28,0.622,0.622,0.622s0.622-0.28,0.622-0.622v-0.955h1.237v0.955
		c0,0.342,0.28,0.622,0.622,0.622c0.342,0,0.622-0.28,0.622-0.622v-2.743C51.879,39.964,51.599,39.684,51.258,39.684z"/>
	<path d="M50.099,41.97h-0.164c-0.168,0-0.306-0.138-0.306-0.306v-6.167c0-0.168,0.138-0.306,0.306-0.306h0.164
		c0.168,0,0.306,0.138,0.306,0.306v6.167C50.406,41.833,50.268,41.97,50.099,41.97z"/>
</g>
<g>
	<path d="M23.328,39.684c0.342,0,0.622,0.28,0.622,0.622v0.955h1.237v-0.955c0-0.342,0.28-0.622,0.622-0.622
		c0.342,0,0.622,0.28,0.622,0.622v2.743c0,0.342-0.28,0.622-0.622,0.622c-0.342,0-0.622-0.28-0.622-0.622v-0.955h-1.237v0.955
		c0,0.342-0.28,0.622-0.622,0.622s-0.622-0.28-0.622-0.622v-2.743C22.706,39.964,22.986,39.684,23.328,39.684z"/>
	<path d="M24.486,41.97h0.164c0.168,0,0.306-0.138,0.306-0.306v-6.167c0-0.168-0.138-0.306-0.306-0.306h-0.164
		c-0.168,0-0.306,0.138-0.306,0.306v6.167C24.18,41.833,24.317,41.97,24.486,41.97z"/>
</g>
<g>
	<path d="M19.26,20.013l8.229,2.401c0.476-0.668,1.014-1.278,1.613-1.821l-9.841-1.724V20.013z M36.64,8.773l-0.607,8.858
		c0.412-0.037,0.831-0.059,1.259-0.059c0.428,0,0.847,0.022,1.259,0.059l-0.607-8.858H36.64z M45.484,20.593
		c0.598,0.543,1.136,1.153,1.613,1.821l8.229-2.401v-1.144L45.484,20.593z"/>
</g>
<g>
	<path d="M37.293,18.573c-6.195,0-11.218,4.349-11.218,11.914c0,7.564,5.022,15.479,11.218,15.479
		c6.196,0,11.218-7.915,11.218-15.479C48.511,22.922,43.488,18.573,37.293,18.573z M36.143,30.282l-7.844-1.754l3.142-2.94
		l4.702,0.183V30.282z M38.442,30.282V25.77l4.702-0.183l3.142,2.94L38.442,30.282z"/>
</g>
<path d="M26.15,36.765c-0.687-2.036-1.075-4.189-1.075-6.279c0-1.585,0.23-3.063,0.641-4.421h-6.545v0.982H0v8.735h19.171v0.982
	H26.15z M7.961,32.738c0,0.552-0.448,1-1,1H2.613c-0.552,0-1-0.448-1-1v-2.645c0-0.552,0.448-1,1-1h4.348c0.552,0,1,0.448,1,1
	V32.738z M16.712,32.738c0,0.552-0.448,1-1,1h-4.348c-0.552,0-1-0.448-1-1v-2.645c0-0.552,0.448-1,1-1h4.348c0.552,0,1,0.448,1,1
	V32.738z"/>
</svg>
