<svg class="svg-icon" style="width: 1.166015625em;height: 1em;vertical-align: middle;fill: currentColor;overflow: hidden;" viewBox="0 0 1194 1024" version="1.1" xmlns="http://www.w3.org/2000/svg"><path d="M1186.572355 129.16578c-52.8882-85.303548-242.262077-5.971248-436.754167 116.865861L537.412354 135.137028l5.971248-5.971248c11.089461-5.971248 17.06071-17.913745 5.971248-29.003207S531.441105 85.66097 519.498608 94.191325l-29.856241 17.060709L277.236532 6.32867a40.945703 40.945703 0 0 0-58.859449 17.06071c-11.942497 17.913745-5.971248 35.82749 17.913745 52.8882l283.20778 327.565625c-117.718896 85.303548-218.377083 170.607096-271.265283 210.699764h-5.971248L52.8882 561.654769a41.798739 41.798739 0 0 0-52.8882 29.856242 975.872591 975.872591 0 0 1 117.718896 139.897819 801.853353 801.853353 0 0 1 59.712484 163.782812 42.651774 42.651774 0 0 0 52.8882-29.003206L255.910645 743.351326a22.178923 22.178923 0 0 1 17.913745-5.971248s165.488883-69.94891 359.980973-170.607096l136.485677 415.428279c5.118213 29.003206 17.06071 40.945703 40.945703 40.945704a40.092668 40.092668 0 0 0 40.945703-40.945704l11.942497-210.699764 23.884994-17.060709c11.942497-5.971248 17.913745-17.913745 5.971248-29.856242a17.913745 17.913745 0 0 0-29.856242-5.971248l-2.559106-267.853142c195.345125-128.808358 371.92347-245.674219 325.006518-321.594376z" fill="#FCA800" /></svg>